<svg xmlns="http://www.w3.org/2000/svg" viewBox="0 0 500 500"><g id="freepik--background-complete--inject-1"><rect x="416.78" y="398.49" width="33.12" height="0.25" style="fill:#ebebeb"></rect><rect x="322.53" y="401.21" width="8.69" height="0.25" style="fill:#ebebeb"></rect><rect x="396.59" y="389.21" width="19.19" height="0.25" style="fill:#ebebeb"></rect><rect x="52.46" y="390.89" width="43.19" height="0.25" style="fill:#ebebeb"></rect><rect x="104.56" y="390.89" width="6.33" height="0.25" style="fill:#ebebeb"></rect><rect x="131.47" y="395.11" width="93.68" height="0.25" style="fill:#ebebeb"></rect><path d="M237,337.8H43.91a5.71,5.71,0,0,1-5.7-5.71V60.66A5.71,5.71,0,0,1,43.91,55H237a5.71,5.71,0,0,1,5.71,5.71V332.09A5.71,5.71,0,0,1,237,337.8ZM43.91,55.2a5.46,5.46,0,0,0-5.45,5.46V332.09a5.46,5.46,0,0,0,5.45,5.46H237a5.47,5.47,0,0,0,5.46-5.46V60.66A5.47,5.47,0,0,0,237,55.2Z" style="fill:#ebebeb"></path><path d="M453.31,337.8H260.21a5.72,5.72,0,0,1-5.71-5.71V60.66A5.72,5.72,0,0,1,260.21,55h193.1A5.71,5.71,0,0,1,459,60.66V332.09A5.71,5.71,0,0,1,453.31,337.8ZM260.21,55.2a5.47,5.47,0,0,0-5.46,5.46V332.09a5.47,5.47,0,0,0,5.46,5.46h193.1a5.47,5.47,0,0,0,5.46-5.46V60.66a5.47,5.47,0,0,0-5.46-5.46Z" style="fill:#ebebeb"></path><rect y="382.4" width="500" height="0.25" style="fill:#ebebeb"></rect><rect x="213.14" y="304.04" width="74.84" height="69.74" style="fill:#e6e6e6"></rect><rect x="215.49" y="375.97" width="9.55" height="6.09" style="fill:#e0e0e0"></rect><rect x="287.99" y="304.04" width="151.98" height="69.06" style="fill:#e6e6e6"></rect><rect x="442.01" y="298.91" width="9.55" height="83.16" style="fill:#e6e6e6"></rect><rect x="295.39" y="309.54" width="65.88" height="60.34" style="fill:#f5f5f5"></rect><polygon points="306.52 369.88 324.11 369.88 330.45 309.54 312.86 309.54 306.52 369.88" style="fill:#fafafa"></polygon><polygon points="328.61 369.88 332.11 369.88 338.45 309.54 334.95 309.54 328.61 369.88" style="fill:#fafafa"></polygon><rect x="220.27" y="309.54" width="65.88" height="60.34" style="fill:#f5f5f5"></rect><rect x="371.24" y="309.54" width="65.88" height="60.34" style="fill:#f5f5f5"></rect><path d="M439.58,298.91H210.42v83.16h5.1v-4.66H437v4.66h5.1V298.91Zm-224.06,7.52h70v28.89h-70Zm0,63.45V339.62h70v30.26Zm145.76,0H290.62V306.43h70.66Zm75.75,0H366.37V339.62H437Zm0-34.56H366.37V306.43H437Z" style="fill:#f0f0f0"></path><circle cx="251.23" cy="316.7" r="3.06" style="fill:#ebebeb"></circle><path d="M251.23,319.76a3.05,3.05,0,0,1-2.77-1.79,3.06,3.06,0,1,0,5.55,0A3.06,3.06,0,0,1,251.23,319.76Z" style="fill:#e0e0e0"></path><path d="M254.29,352.26a3.06,3.06,0,1,1-3.06-3.06A3.06,3.06,0,0,1,254.29,352.26Z" style="fill:#ebebeb"></path><path d="M251.23,355.32a3,3,0,0,1-2.77-1.79,3.06,3.06,0,1,0,5.55,0A3,3,0,0,1,251.23,355.32Z" style="fill:#e0e0e0"></path><circle cx="405.67" cy="316.7" r="3.06" style="fill:#ebebeb"></circle><path d="M405.67,319.76a3.07,3.07,0,0,1-2.78-1.79,3,3,0,0,0-.28,1.27,3.06,3.06,0,1,0,5.83-1.27A3.05,3.05,0,0,1,405.67,319.76Z" style="fill:#e0e0e0"></path><path d="M355.06,341.48a3.06,3.06,0,1,1-3.06-3.07A3.06,3.06,0,0,1,355.06,341.48Z" style="fill:#ebebeb"></path><path d="M352,344.54a3.07,3.07,0,0,1-2.78-1.79,3,3,0,0,0-.28,1.27,3.06,3.06,0,1,0,5.83-1.27A3.05,3.05,0,0,1,352,344.54Z" style="fill:#e0e0e0"></path><path d="M408.73,352.26a3.06,3.06,0,1,1-3.06-3.06A3.06,3.06,0,0,1,408.73,352.26Z" style="fill:#ebebeb"></path><path d="M405.67,355.32a3.05,3.05,0,0,1-2.78-1.79,3.07,3.07,0,1,0,5.55,0A3,3,0,0,1,405.67,355.32Z" style="fill:#e0e0e0"></path><path d="M397.15,209.71h0a1.3,1.3,0,0,1,1.3,1.3v82.33a1.3,1.3,0,0,1-1.3,1.3h0a0,0,0,0,1,0,0V209.71A0,0,0,0,1,397.15,209.71Z" style="fill:#e0e0e0"></path><rect x="254.9" y="209.71" width="142.26" height="84.93" style="fill:#ebebeb"></rect><rect x="257.24" y="212.05" width="137.57" height="80.25" style="fill:#e0e0e0"></rect><polygon points="311.61 292.3 332.39 292.3 345.1 212.05 324.32 212.05 311.61 292.3" style="fill:#fafafa;opacity:0.1"></polygon><polygon points="336.09 292.3 340.75 292.3 353.46 212.05 348.8 212.05 336.09 292.3" style="fill:#fafafa;opacity:0.2"></polygon><path d="M344.05,294.64v3h4.23a1.88,1.88,0,0,0,1.88-1.89v-1.15Z" style="fill:#e0e0e0"></path><path d="M344.47,297.68H306.23a3,3,0,0,1-3-3h44.32A3,3,0,0,1,344.47,297.68Z" style="fill:#f0f0f0"></path><polygon points="93.38 169.63 89.12 169.61 87.95 168.1 94.57 168.15 93.38 169.63" style="fill:#407BFF"></polygon><polygon points="93.38 169.63 89.12 169.61 87.95 168.1 94.57 168.15 93.38 169.63" style="fill:#fff;opacity:0.5"></polygon><path d="M100.66,150.52a8.84,8.84,0,0,1-3.16,6.68,5.87,5.87,0,0,0-2.15,4.4v.69l-8.11-.06v-.68a5.84,5.84,0,0,0-2.08-4.42,8.85,8.85,0,0,1-3.08-6.76,9.3,9.3,0,0,1,18.59.15Z" style="fill:#ebebeb"></path><path d="M90,162.28l-1.5-7.36a.23.23,0,0,1,.18-.26h0a.23.23,0,0,1,.27.18l1.5,7.35Z" style="fill:#407BFF"></path><path d="M92.63,162.3l-.45-.09,1.6-7.33a.22.22,0,0,1,.27-.17h0a.21.21,0,0,1,.17.26Z" style="fill:#407BFF"></path><polygon points="92.26 157.98 91.35 156.36 90.42 157.97 88.71 156.03 89.06 155.74 90.34 157.2 91.36 155.45 92.35 157.21 93.66 155.77 94 156.07 92.26 157.98" style="fill:#407BFF"></polygon><path d="M96,163.43a1,1,0,0,1-1,1h-1l-.23,0-6.06,0a1,1,0,1,1,0-2h1.07l.21,0h0l6,0A1,1,0,0,1,96,163.43Z" style="fill:#407BFF"></path><path d="M95.64,165.35a1,1,0,0,1-1,1h-1a.83.83,0,0,1-.22,0l-5.63,0a1,1,0,0,1-1-1,1,1,0,0,1,.94-1h1l.2,0h0l5.63,0A1,1,0,0,1,95.64,165.35Z" style="fill:#407BFF"></path><path d="M95.26,167.27a.94.94,0,0,1-.89,1h-.9a.64.64,0,0,1-.2,0l-5.21-.05a.94.94,0,0,1-.88-1,.93.93,0,0,1,.87-1H89l.18,0h0l5.21,0A1,1,0,0,1,95.26,167.27Z" style="fill:#407BFF"></path><polygon points="87.76 168.77 87.77 168.22 94.72 168.26 94.72 168.8 87.76 168.77" style="fill:#407BFF"></polygon><rect x="87.23" y="161.97" width="8.12" height="0.54" style="fill:#407BFF"></rect><g style="opacity:0.4"><path d="M83.14,148.81A3.12,3.12,0,0,0,83,150.2h0a.61.61,0,0,0,1.16.06,6.33,6.33,0,0,1,4-3.74c1.41-.42,3.16-.47,3.6-2.17a1.59,1.59,0,0,0-.11-.91v0C90.55,141.08,84.27,144.21,83.14,148.81Z" style="fill:#fff"></path></g><path d="M92.76,144a1.35,1.35,0,0,0,.38,1.35,1.87,1.87,0,0,0,1.13.35,1.51,1.51,0,0,0,1.16-.35,1.23,1.23,0,0,0,0-1.38C94.79,142.56,93.2,142.24,92.76,144Z" style="fill:#fff;opacity:0.4"></path><path d="M94.58,171.93v2.51a26.11,26.11,0,0,1-3.21.19,26.39,26.39,0,0,1-3.22-.19v-2.51Z" style="fill:#263238"></path><path d="M91.37,380.31a2,2,0,0,1-2-2V198.74a2,2,0,1,1,3.92,0V378.35A2,2,0,0,1,91.37,380.31Z" style="fill:#e0e0e0"></path><path d="M118.33,148.49a26.13,26.13,0,0,1-16.34,24,11.64,11.64,0,0,0-7.41,10.65v15.57H88.15V183.17a11.64,11.64,0,0,0-7.41-10.65,26.15,26.15,0,0,1-16.34-24Z" style="fill:#e0e0e0"></path><path d="M61.19,381l.21.17-.52-.08Z" style="fill:#407BFF"></path><path d="M122.15,381.07l-.51.07a1.75,1.75,0,0,0,.2-.16Z" style="fill:#407BFF"></path><path d="M122.15,380.39a.81.81,0,0,1-.31.59,1.75,1.75,0,0,1-.2.16c-2.61,1.93-15.11,1.21-30.13,1.21s-27.47.73-30.11-1.2l-.21-.17a.84.84,0,0,1-.31-.59c0-1,20.31-5.24,26.64-7.08l1.19-.35h5.48l1.26.37C101.73,375.15,122.15,379.34,122.15,380.39Z" style="fill:#e0e0e0"></path></g><g id="freepik--Shadow--inject-1"><ellipse id="freepik--path--inject-1" cx="250" cy="415.69" rx="193.89" ry="11.32" style="fill:#f5f5f5"></ellipse></g><g id="freepik--Star--inject-1"><path d="M385.11,211l-48.34,43.42-14.94,13.42a5.86,5.86,0,0,0-2,4.78l1.09,22.93,3,62.73c.37,4.41-4.56,7.78-8.34,5.69l-17.28-9.6-25.27-14L254.42,330,273,340.29l25.31,13.94,3.63,2c3.78,2.09,8.71-1.28,8.34-5.68l-1.89-22.48h0l-4.85-57.77a5.83,5.83,0,0,1,2-4.79l41.24-37,22-19.79c3.47-3.12,2.19-8.57-2.19-9.21l-8.22-1.21-24.5-3.61-46.83-6.89a4.79,4.79,0,0,1-3.81-3L273.6,161h0l-4.38-10.78-6-14.8h0l-2.38-5.87h0l-3.92-9.67-3.28-8.08a4.72,4.72,0,0,0-3-2.78L265,111.13l2.11.31.47.45,2.3,2.23L277,131.6l1.34,3.3,2.72,6.7,18.5,45.54a4.82,4.82,0,0,0,3.81,3l30.56,4.5,24.5,3.6,24.5,3.61C387.3,202.45,388.59,207.9,385.11,211Z" style="fill:#407BFF"></path><path d="M385.11,211l-48.34,43.42-14.94,13.42a5.86,5.86,0,0,0-2,4.78l1.09,22.93,3,62.73c.37,4.41-4.56,7.78-8.34,5.69l-17.28-9.6-25.27-14L254.42,330,273,340.29l25.31,13.94,3.63,2c3.78,2.09,8.71-1.28,8.34-5.68l-1.89-22.48h0l-4.85-57.77a5.83,5.83,0,0,1,2-4.79l41.24-37,22-19.79c3.47-3.12,2.19-8.57-2.19-9.21l-8.22-1.21-24.5-3.61-46.83-6.89a4.79,4.79,0,0,1-3.81-3L273.6,161h0l-4.38-10.78-6-14.8h0l-2.38-5.87h0l-3.92-9.67-3.28-8.08a4.72,4.72,0,0,0-3-2.78L265,111.13l2.11.31.47.45,2.3,2.23L277,131.6l1.34,3.3,2.72,6.7,18.5,45.54a4.82,4.82,0,0,0,3.81,3l30.56,4.5,24.5,3.6,24.5,3.61C387.3,202.45,388.59,207.9,385.11,211Z" style="opacity:0.5"></path><polygon points="267.14 111.44 267.14 111.44 267.14 111.44 267.14 111.44" style="fill:#263238"></polygon><path d="M269.91,114.12l-2.77-2.68A4.65,4.65,0,0,1,269.91,114.12Z" style="fill:#263238"></path><path d="M265,111.13a5.33,5.33,0,0,1,2.11.3Z" style="fill:#263238"></path><path d="M243,323.75l-39.81,20h0l-18.85,9.47-11.76,5.91-.24.11a7.75,7.75,0,0,1-5.37,0l-.31.16-16.26-2.51h0a5.64,5.64,0,0,0,2.38-.63l9.3-4.67,16.39-8.23L187,339l4.13-2.07,18.19-9.15,18.84-9.46a5.39,5.39,0,0,1,5,0Z" style="fill:#407BFF"></path><path d="M243,323.75l-39.81,20h0l-18.85,9.47-11.76,5.91-.24.11a7.75,7.75,0,0,1-5.37,0l-.31.16-16.26-2.51h0a5.64,5.64,0,0,0,2.38-.63l9.3-4.67,16.39-8.23L187,339l4.13-2.07,18.19-9.15,18.84-9.46a5.39,5.39,0,0,1,5,0Z" style="opacity:0.5"></path><path d="M263.2,135.4l-7.33-13.78L249,108.76h0l1.54.23a4.72,4.72,0,0,1,3,2.78l3.28,8.08Z" style="fill:#263238"></path><path d="M187,339,162.1,351.56l-9.3,4.67a5.64,5.64,0,0,1-2.38.63L167,326.13l1.43.92Z" style="fill:#263238"></path><path d="M368.82,208.67l-22,19.79h0l-41.24,37a5.83,5.83,0,0,0-2,4.79l4.85,57.77h0l1.89,22.48c.37,4.4-4.56,7.77-8.34,5.68l-3.63-2L273,340.29,254.42,330l-.37-.21-11-6.07-9.8-5.4a5.39,5.39,0,0,0-5,0l-18.84,9.46L191.16,337,187,339l-8.54,4.3-16.39,8.23-9.3,4.67a5.64,5.64,0,0,1-2.38.63,4.91,4.91,0,0,1-5-6.31l1.25-4.83,19.53-75.43a5.06,5.06,0,0,0-1.13-4.79l-53.34-56.83c-2.92-3.12-.68-8.57,3.8-9.21l81.61-11.71a6.06,6.06,0,0,0,4.33-3l42.42-73a6,6,0,0,1,1.17-1.44,5.79,5.79,0,0,1,2.72-1.43,5.55,5.55,0,0,1,1.21-.14h0a4.45,4.45,0,0,1,1,.11,4.21,4.21,0,0,1,.51.12,4.72,4.72,0,0,1,3,2.78l3.28,8.08,3.92,9.68,2.38,5.87h0l6,14.8L273.6,161h0l9.67,23.8a4.79,4.79,0,0,0,3.81,3l46.83,6.89,24.5,3.61,8.22,1.21C371,200.1,372.29,205.55,368.82,208.67Z" style="fill:#407BFF"></path><path d="M260.82,129.53l-.31.81-79,205.13-3,7.86-16.39,8.23-9.3,4.67a5.64,5.64,0,0,1-2.38.63,4.91,4.91,0,0,1-5-6.31l1.25-4.83L245.1,110.33a5.79,5.79,0,0,1,2.72-1.43l1.28,0h1a4.21,4.21,0,0,1,.51.12,4.72,4.72,0,0,1,3,2.78l3.28,8.08Z" style="fill:#fff;opacity:0.4"></path><polygon points="273.6 160.98 273.6 160.99 209.35 327.81 191.16 336.96 269.22 150.2 273.6 160.98" style="fill:#fff;opacity:0.2"></polygon><path d="M358.43,198.2l0,.05-11.63,30.21h0l-41.24,37a5.83,5.83,0,0,0-2,4.79l4.85,57.77h0l-10.08,26.16-.06.16-25.27-14,0-.06,60.88-145.65,0,0Z" style="fill:#fff;opacity:0.30000000000000004"></path></g><g id="freepik--speech-bubble-2--inject-1"><path d="M381.69,297.65c-.23-3.32-7.16-4.51-10.24-5.32a16.85,16.85,0,0,1-1.88-.55c-12.33-4-20.26-12-20.69-20.91-.67-14,16.73-26.27,38.78-27.33S428.23,253,428.9,267s-16.73,26.26-38.8,27.32a1.37,1.37,0,0,0-1.16,1.34c-.63,5-3.58,6.42-6,7.57l-.31.15A35.63,35.63,0,0,1,378,305a.62.62,0,0,1-.53-1.1C379.71,302.36,381.87,300.2,381.69,297.65Z" style="fill:#fff"></path><path d="M377.8,305.53a1.12,1.12,0,0,1-.62-2c1.92-1.32,4.18-3.4,4-5.81h0c-.17-2.52-5.39-3.78-8.51-4.53l-1.36-.33c-.9-.24-1.57-.42-1.94-.57-12.5-4-20.55-12.2-21-21.36-.68-14.28,16.93-26.77,39.26-27.85s41.07,9.67,41.76,24-16.93,26.76-39.28,27.84c-.53,0-.65.7-.68.9-.66,5.26-3.89,6.82-6.24,8l-.32.15a33.19,33.19,0,0,1-4.75,1.64A1,1,0,0,1,377.8,305.53ZM390.72,244c-1,0-2,0-3,.07-21.78,1.05-39,13.07-38.31,26.8.42,8.73,8.22,16.57,20.34,20.47.35.14,1,.32,1.79.52l1.41.35c3.6.87,9,2.18,9.27,5.43h0c.16,2.31-1.34,4.57-4.45,6.7a.11.11,0,0,0,0,.15.11.11,0,0,0,.15.06,33.16,33.16,0,0,0,4.6-1.58l.31-.15c2.39-1.16,5.09-2.46,5.69-7.18a1.82,1.82,0,0,1,1.63-1.78c21.79-1.05,39-13.07,38.32-26.79C427.77,254,411.14,244,390.72,244Z" style="fill:#407BFF"></path><path d="M379,264.16h-2.93a2.67,2.67,0,0,0-2.64,2.51l-.71,13.52a2.36,2.36,0,0,0,2.37,2.51H378a2.67,2.67,0,0,0,2.64-2.51l.71-13.52A2.36,2.36,0,0,0,379,264.16Z" style="fill:#407BFF"></path><path d="M379,264.16h-2.93a2.67,2.67,0,0,0-2.64,2.51l-.71,13.52a2.36,2.36,0,0,0,2.37,2.51H378a2.67,2.67,0,0,0,2.64-2.51l.71-13.52A2.36,2.36,0,0,0,379,264.16Z" style="fill:#fff;opacity:0.5"></path><path d="M402.15,264.16h-8.57l.74-3.48a26,26,0,0,0,.71-5.57,3.39,3.39,0,0,0-1.46-2.42,6.3,6.3,0,0,0-3.89-.68l-.79.74c-.08,1.5-.59,5.47-1.53,6.65l-4.08,5.15a4.23,4.23,0,0,0-.92,2.41l-.67,12.65a2.92,2.92,0,0,0,2.94,3.09h12a3.82,3.82,0,0,0,2.8-1.27l1.13-1.26a3.7,3.7,0,0,0,.88-1.7l2.63-11.71Z" style="fill:#407BFF"></path></g><g id="freepik--speech-bubble-1--inject-1"><path d="M194.43,98.66v39.07a3.69,3.69,0,0,1-3.69,3.69h-58l-11.51,11.17a1.56,1.56,0,0,1-1.21.44c-1.51,0-1.7-1.23-1.7-2.74l.41-8.87h-6.9a3.69,3.69,0,0,1-3.69-3.69V98.65A3.69,3.69,0,0,1,111.86,95h78.89A3.68,3.68,0,0,1,194.43,98.66Z" style="fill:#fff"></path><path d="M120.05,153.53c-2.2,0-2.2-2.19-2.2-3.24l.39-8.37h-6.38a4.2,4.2,0,0,1-4.19-4.19V98.65a4.21,4.21,0,0,1,1.24-3,4.13,4.13,0,0,1,3-1.21h78.88a4.18,4.18,0,0,1,4.18,4.17v39.07a4.2,4.2,0,0,1-4.2,4.19H133l-11.36,11A2.07,2.07,0,0,1,120.05,153.53Zm-8.2-58a3.18,3.18,0,0,0-3.18,3.17v39.07a3.2,3.2,0,0,0,3.19,3.19h7.42l-.43,9.39c0,1.88.39,2.22,1.2,2.22a1.09,1.09,0,0,0,.91-.34l11.6-11.27h58.17a3.2,3.2,0,0,0,3.2-3.19V98.66a3.18,3.18,0,0,0-3.18-3.17h-78.9Z" style="fill:#407BFF"></path><path d="M129.15,104.88l-2.1,1.88-.64.58a.24.24,0,0,0-.09.21l.05,1,.12,2.72a.25.25,0,0,1-.36.24l-.74-.41-1.1-.61-.8-.45.8.45,1.1.6.16.09a.26.26,0,0,0,.36-.25l-.09-1h0l-.21-2.5a.27.27,0,0,1,.09-.21l1.79-1.61,1-.85a.23.23,0,0,0-.09-.4l-.36,0-1.06-.16-2-.3a.18.18,0,0,1-.16-.13l-.42-1h0l-.19-.46-.26-.65h0l-.11-.25h0l-.17-.42-.14-.35a.2.2,0,0,0-.13-.12l.63.09.09,0,0,0,.1.09.3.76.06.14.12.29.8,2a.22.22,0,0,0,.17.12l1.32.2,1.06.15,1.06.16A.23.23,0,0,1,129.15,104.88Z" style="fill:#407BFF"></path><path d="M129.15,104.88l-2.1,1.88-.64.58a.24.24,0,0,0-.09.21l.05,1,.12,2.72a.25.25,0,0,1-.36.24l-.74-.41-1.1-.61-.8-.45.8.45,1.1.6.16.09a.26.26,0,0,0,.36-.25l-.09-1h0l-.21-2.5a.27.27,0,0,1,.09-.21l1.79-1.61,1-.85a.23.23,0,0,0-.09-.4l-.36,0-1.06-.16-2-.3a.18.18,0,0,1-.16-.13l-.42-1h0l-.19-.46-.26-.65h0l-.11-.25h0l-.17-.42-.14-.35a.2.2,0,0,0-.13-.12l.63.09.09,0,0,0,.1.09.3.76.06.14.12.29.8,2a.22.22,0,0,0,.17.12l1.32.2,1.06.15,1.06.16A.23.23,0,0,1,129.15,104.88Z" style="opacity:0.5"></path><path d="M124.16,100.68l-.12-.11A.21.21,0,0,1,124.16,100.68Z" style="fill:#263238"></path><path d="M124,100.55l.09,0Z" style="fill:#263238"></path><path d="M123,109.76l-1.72.87h0l-.82.41-.51.25h0a.36.36,0,0,1-.23,0h0l-.71-.11h0l.11,0,.4-.21.71-.35.37-.19.18-.09.78-.39.82-.41a.22.22,0,0,1,.22,0Z" style="fill:#407BFF"></path><path d="M123,109.76l-1.72.87h0l-.82.41-.51.25h0a.36.36,0,0,1-.23,0h0l-.71-.11h0l.11,0,.4-.21.71-.35.37-.19.18-.09.78-.39.82-.41a.22.22,0,0,1,.22,0Z" style="opacity:0.5"></path><path d="M123.87,101.6l-.32-.59-.3-.56h.07a.2.2,0,0,1,.13.12l.14.35Z" style="fill:#263238"></path><path d="M120.57,110.42l-1.08.54-.4.21-.11,0,.72-1.33.06,0Z" style="fill:#263238"></path><path d="M128.44,104.78l-1,.85h0l-1.79,1.61a.27.27,0,0,0-.09.21l.21,2.5h0l.09,1a.26.26,0,0,1-.36.25l-.16-.09-1.1-.6-.8-.45h0l-.48-.26-.42-.23a.22.22,0,0,0-.22,0l-.82.41-.78.39-.18.09-.37.19-.71.35-.4.21-.11,0a.21.21,0,0,1-.21-.27l0-.21.85-3.26a.22.22,0,0,0,0-.21l-2.31-2.46a.25.25,0,0,1,.16-.4l3.54-.51a.28.28,0,0,0,.19-.13l1.83-3.16,0-.06a.34.34,0,0,1,.12-.06h.12a.2.2,0,0,1,.13.12l.14.35.17.42.11.25h0l.26.65.19.46h0l.42,1a.18.18,0,0,0,.16.13l2,.3,1.06.16.36,0A.23.23,0,0,1,128.44,104.78Z" style="fill:#407BFF"></path><path d="M123.76,101.35v0l-3.42,8.88-.13.34-.71.35-.4.21-.11,0a.21.21,0,0,1-.21-.27l0-.21,4.26-10.19a.34.34,0,0,1,.12-.06h.12a.2.2,0,0,1,.13.12l.14.35Z" style="fill:#fff;opacity:0.4"></path><polygon points="124.32 102.71 124.32 102.71 121.53 109.94 120.75 110.33 124.13 102.25 124.32 102.71" style="fill:#fff;opacity:0.2"></polygon><path d="M128,104.32h0l-.5,1.3h0l-1.79,1.61a.27.27,0,0,0-.09.21l.21,2.5h0l-.43,1.13h0l-1.1-.61h0l2.64-6.31h0Z" style="fill:#fff;opacity:0.30000000000000004"></path><path d="M143.17,104.88l-2.09,1.88-.65.58a.24.24,0,0,0-.08.21l.05,1,.12,2.72a.25.25,0,0,1-.36.24l-.75-.41-1.09-.61-.8-.45.8.45,1.1.6.15.09a.26.26,0,0,0,.37-.25l-.09-1h0l-.21-2.5a.27.27,0,0,1,.09-.21l1.78-1.61,1-.85a.23.23,0,0,0-.1-.4l-.35,0-1.06-.16-2-.3a.21.21,0,0,1-.17-.13l-.41-1h0l-.19-.46-.26-.65h0l-.11-.25h0l-.17-.42-.14-.35a.2.2,0,0,0-.13-.12l.62.09.1,0,0,0,.1.09.3.76.06.14.12.29.8,2a.22.22,0,0,0,.16.12l1.33.2,1.06.15,1.06.16A.22.22,0,0,1,143.17,104.88Z" style="fill:#407BFF"></path><path d="M143.17,104.88l-2.09,1.88-.65.58a.24.24,0,0,0-.08.21l.05,1,.12,2.72a.25.25,0,0,1-.36.24l-.75-.41-1.09-.61-.8-.45.8.45,1.1.6.15.09a.26.26,0,0,0,.37-.25l-.09-1h0l-.21-2.5a.27.27,0,0,1,.09-.21l1.78-1.61,1-.85a.23.23,0,0,0-.1-.4l-.35,0-1.06-.16-2-.3a.21.21,0,0,1-.17-.13l-.41-1h0l-.19-.46-.26-.65h0l-.11-.25h0l-.17-.42-.14-.35a.2.2,0,0,0-.13-.12l.62.09.1,0,0,0,.1.09.3.76.06.14.12.29.8,2a.22.22,0,0,0,.16.12l1.33.2,1.06.15,1.06.16A.22.22,0,0,1,143.17,104.88Z" style="opacity:0.5"></path><path d="M138.19,100.68l-.12-.11A.21.21,0,0,1,138.19,100.68Z" style="fill:#263238"></path><path d="M138,100.55l.1,0Z" style="fill:#263238"></path><path d="M137,109.76l-1.72.87h0l-.82.41-.51.25h0a.36.36,0,0,1-.23,0h0l-.71-.11h0l.1,0,.41-.21.71-.35.37-.19.18-.09.78-.39.82-.41a.22.22,0,0,1,.22,0Z" style="fill:#407BFF"></path><path d="M137,109.76l-1.72.87h0l-.82.41-.51.25h0a.36.36,0,0,1-.23,0h0l-.71-.11h0l.1,0,.41-.21.71-.35.37-.19.18-.09.78-.39.82-.41a.22.22,0,0,1,.22,0Z" style="opacity:0.5"></path><path d="M137.9,101.6l-.32-.59-.3-.56h.07a.2.2,0,0,1,.13.12l.14.35Z" style="fill:#263238"></path><path d="M134.6,110.42l-1.08.54-.41.21-.1,0,.72-1.33.06,0Z" style="fill:#263238"></path><path d="M142.47,104.78l-1,.85h0l-1.78,1.61a.27.27,0,0,0-.09.21l.21,2.5h0l.09,1a.26.26,0,0,1-.37.25l-.15-.09-1.1-.6-.8-.45h0l-.48-.26-.42-.23a.22.22,0,0,0-.22,0l-.82.41-.78.39-.18.09-.37.19-.71.35-.41.21-.1,0a.21.21,0,0,1-.21-.27l0-.21.85-3.26a.22.22,0,0,0,0-.21l-2.31-2.46a.25.25,0,0,1,.16-.4l3.54-.51a.26.26,0,0,0,.18-.13l1.84-3.16.05-.06a.34.34,0,0,1,.12-.06h.12a.2.2,0,0,1,.13.12l.14.35.17.42.11.25h0l.26.65.19.46h0l.41,1a.21.21,0,0,0,.17.13l2,.3,1.06.16.35,0A.23.23,0,0,1,142.47,104.78Z" style="fill:#407BFF"></path><path d="M137.79,101.35v0l-3.42,8.88-.13.34-.71.35-.41.21-.1,0a.21.21,0,0,1-.21-.27l0-.21,4.26-10.19a.34.34,0,0,1,.12-.06h.12a.2.2,0,0,1,.13.12l.14.35Z" style="fill:#fff;opacity:0.4"></path><polygon points="138.35 102.71 138.35 102.71 135.56 109.94 134.78 110.33 138.16 102.25 138.35 102.71" style="fill:#fff;opacity:0.2"></polygon><path d="M142,104.32h0l-.51,1.3h0l-1.78,1.61a.27.27,0,0,0-.09.21l.21,2.5h0l-.43,1.13h0l-1.09-.61h0l2.64-6.31h0Z" style="fill:#fff;opacity:0.30000000000000004"></path><path d="M157.2,104.88l-2.09,1.88-.65.58a.24.24,0,0,0-.08.21l0,1,.13,2.72a.25.25,0,0,1-.36.24l-.75-.41-1.09-.61-.81-.45.81.45,1.1.6.15.09a.25.25,0,0,0,.36-.25l-.08-1h0l-.21-2.5a.27.27,0,0,1,.09-.21l1.78-1.61,1-.85a.23.23,0,0,0-.1-.4l-.35,0-1.06-.16-2-.3a.21.21,0,0,1-.17-.13l-.42-1h0l-.18-.46-.27-.65h0l-.1-.25h0l-.17-.42-.14-.35a.25.25,0,0,0-.13-.12l.62.09.1,0,0,0,.1.09.3.76.06.14.12.29.8,2a.22.22,0,0,0,.16.12l1.33.2,1.06.15,1.06.16A.22.22,0,0,1,157.2,104.88Z" style="fill:#407BFF"></path><path d="M157.2,104.88l-2.09,1.88-.65.58a.24.24,0,0,0-.08.21l0,1,.13,2.72a.25.25,0,0,1-.36.24l-.75-.41-1.09-.61-.81-.45.81.45,1.1.6.15.09a.25.25,0,0,0,.36-.25l-.08-1h0l-.21-2.5a.27.27,0,0,1,.09-.21l1.78-1.61,1-.85a.23.23,0,0,0-.1-.4l-.35,0-1.06-.16-2-.3a.21.21,0,0,1-.17-.13l-.42-1h0l-.18-.46-.27-.65h0l-.1-.25h0l-.17-.42-.14-.35a.25.25,0,0,0-.13-.12l.62.09.1,0,0,0,.1.09.3.76.06.14.12.29.8,2a.22.22,0,0,0,.16.12l1.33.2,1.06.15,1.06.16A.22.22,0,0,1,157.2,104.88Z" style="opacity:0.5"></path><path d="M152.22,100.68l-.12-.11A.21.21,0,0,1,152.22,100.68Z" style="fill:#263238"></path><path d="M152,100.55l.09,0Z" style="fill:#263238"></path><path d="M151.05,109.76l-1.72.87h0l-.82.41-.51.25h0a.36.36,0,0,1-.23,0h0l-.7-.11h0l.1,0,.41-.21.71-.35.37-.19.18-.09.78-.39.82-.41a.22.22,0,0,1,.22,0Z" style="fill:#407BFF"></path><path d="M151.05,109.76l-1.72.87h0l-.82.41-.51.25h0a.36.36,0,0,1-.23,0h0l-.7-.11h0l.1,0,.41-.21.71-.35.37-.19.18-.09.78-.39.82-.41a.22.22,0,0,1,.22,0Z" style="opacity:0.5"></path><path d="M151.92,101.6l-.31-.59-.3-.56h.07a.25.25,0,0,1,.13.12l.14.35Z" style="fill:#263238"></path><path d="M148.63,110.42l-1.08.54-.41.21-.1,0,.72-1.33.06,0Z" style="fill:#263238"></path><path d="M156.5,104.78l-1,.85h0l-1.78,1.61a.27.27,0,0,0-.09.21l.21,2.5h0l.08,1a.25.25,0,0,1-.36.25l-.15-.09-1.1-.6-.81-.45h0l-.48-.26-.42-.23a.22.22,0,0,0-.22,0l-.82.41-.78.39-.18.09-.37.19-.71.35-.41.21-.1,0a.21.21,0,0,1-.21-.27l0-.21.85-3.26a.22.22,0,0,0,0-.21l-2.31-2.46a.25.25,0,0,1,.16-.4l3.54-.51a.26.26,0,0,0,.18-.13l1.84-3.16,0-.06.12-.06h.12a.25.25,0,0,1,.13.12l.14.35.17.42.1.25h0l.27.65.18.46h0l.42,1a.21.21,0,0,0,.17.13l2,.3,1.06.16.35,0A.23.23,0,0,1,156.5,104.78Z" style="fill:#407BFF"></path><path d="M151.82,101.35v0l-3.42,8.88-.13.34-.71.35-.41.21-.1,0a.21.21,0,0,1-.21-.27l0-.21,4.26-10.19.12-.06h.12a.25.25,0,0,1,.13.12l.14.35Z" style="fill:#fff;opacity:0.4"></path><polygon points="152.38 102.71 152.38 102.71 149.59 109.94 148.81 110.33 152.19 102.25 152.38 102.71" style="fill:#fff;opacity:0.2"></polygon><path d="M156.05,104.32h0l-.51,1.3h0l-1.78,1.61a.27.27,0,0,0-.09.21l.21,2.5h0l-.43,1.13h0l-1.09-.61h0l2.64-6.31h0Z" style="fill:#fff;opacity:0.30000000000000004"></path><path d="M171.23,104.88l-2.09,1.88-.65.58a.24.24,0,0,0-.08.21l0,1,.13,2.72a.25.25,0,0,1-.36.24l-.75-.41-1.09-.61-.81-.45.81.45,1.1.6.15.09a.25.25,0,0,0,.36-.25l-.08-1h0l-.21-2.5a.24.24,0,0,1,.09-.21l1.78-1.61,1-.85a.23.23,0,0,0-.1-.4l-.35,0-1.06-.16-2-.3a.21.21,0,0,1-.17-.13l-.42-1h0l-.19-.46-.26-.65h0l-.1-.25h0l-.17-.42-.14-.35a.25.25,0,0,0-.13-.12l.62.09.09,0,0,0,.1.09.31.76.06.14.12.29.8,2a.22.22,0,0,0,.16.12l1.33.2,1.06.15,1.06.16A.22.22,0,0,1,171.23,104.88Z" style="fill:#407BFF"></path><path d="M171.23,104.88l-2.09,1.88-.65.58a.24.24,0,0,0-.08.21l0,1,.13,2.72a.25.25,0,0,1-.36.24l-.75-.41-1.09-.61-.81-.45.81.45,1.1.6.15.09a.25.25,0,0,0,.36-.25l-.08-1h0l-.21-2.5a.24.24,0,0,1,.09-.21l1.78-1.61,1-.85a.23.23,0,0,0-.1-.4l-.35,0-1.06-.16-2-.3a.21.21,0,0,1-.17-.13l-.42-1h0l-.19-.46-.26-.65h0l-.1-.25h0l-.17-.42-.14-.35a.25.25,0,0,0-.13-.12l.62.09.09,0,0,0,.1.09.31.76.06.14.12.29.8,2a.22.22,0,0,0,.16.12l1.33.2,1.06.15,1.06.16A.22.22,0,0,1,171.23,104.88Z" style="opacity:0.5"></path><path d="M166.24,100.68l-.12-.11A.17.17,0,0,1,166.24,100.68Z" style="fill:#263238"></path><path d="M166,100.55l.09,0Z" style="fill:#263238"></path><path d="M165.08,109.76l-1.72.87h0l-.82.41-.51.25h0a.36.36,0,0,1-.23,0h0l-.7-.11h0l.1,0,.41-.21.71-.35.37-.19.17-.09.79-.39.82-.41a.22.22,0,0,1,.22,0Z" style="fill:#407BFF"></path><path d="M165.08,109.76l-1.72.87h0l-.82.41-.51.25h0a.36.36,0,0,1-.23,0h0l-.7-.11h0l.1,0,.41-.21.71-.35.37-.19.17-.09.79-.39.82-.41a.22.22,0,0,1,.22,0Z" style="opacity:0.5"></path><path d="M166,101.6l-.31-.59-.3-.56h.07a.25.25,0,0,1,.13.12l.14.35Z" style="fill:#263238"></path><path d="M162.66,110.42l-1.08.54-.41.21-.1,0,.72-1.33.06,0Z" style="fill:#263238"></path><path d="M170.53,104.78l-1,.85h0l-1.78,1.61a.24.24,0,0,0-.09.21l.21,2.5h0l.08,1a.25.25,0,0,1-.36.25l-.15-.09-1.1-.6-.81-.45h0l-.48-.26-.42-.23a.22.22,0,0,0-.22,0l-.82.41-.79.39-.17.09-.37.19-.71.35-.41.21-.1,0a.22.22,0,0,1-.22-.27l.06-.21.85-3.26a.25.25,0,0,0,0-.21l-2.31-2.46a.25.25,0,0,1,.16-.4l3.53-.51a.26.26,0,0,0,.19-.13l1.84-3.16,0-.06a.27.27,0,0,1,.12-.06h.12a.25.25,0,0,1,.13.12l.14.35.17.42.1.25h0l.26.65.19.46h0l.42,1a.21.21,0,0,0,.17.13l2,.3,1.06.16.35,0A.23.23,0,0,1,170.53,104.78Z" style="fill:#407BFF"></path><path d="M165.85,101.35v0l-3.42,8.88-.13.34-.71.35-.41.21-.1,0a.22.22,0,0,1-.22-.27l.06-.21,4.26-10.19a.27.27,0,0,1,.12-.06h.12a.25.25,0,0,1,.13.12l.14.35Z" style="fill:#fff;opacity:0.4"></path><polygon points="166.4 102.71 166.4 102.71 163.62 109.94 162.83 110.33 166.21 102.25 166.4 102.71" style="fill:#fff;opacity:0.2"></polygon><path d="M170.08,104.32h0l-.51,1.3h0l-1.78,1.61a.24.24,0,0,0-.09.21l.21,2.5h0l-.43,1.13h0l-1.09-.61h0l2.64-6.31h0Z" style="fill:#fff;opacity:0.30000000000000004"></path><path d="M185.26,104.88l-2.09,1.88-.65.58a.24.24,0,0,0-.08.21l0,1,.13,2.72a.25.25,0,0,1-.36.24l-.75-.41-1.09-.61-.81-.45.81.45,1.09.6.16.09a.25.25,0,0,0,.36-.25l-.08-1h0l-.21-2.5a.24.24,0,0,1,.09-.21l1.78-1.61,1-.85a.23.23,0,0,0-.1-.4l-.35,0-1.07-.16-2-.3a.21.21,0,0,1-.17-.13l-.42-1h0l-.19-.46-.26-.65h0l-.1-.25h0l-.17-.42-.14-.35a.25.25,0,0,0-.13-.12l.62.09.09,0,0,0,.1.09.31.76.06.14.12.29.8,2a.2.2,0,0,0,.16.12l1.32.2,1.07.15,1.06.16A.22.22,0,0,1,185.26,104.88Z" style="fill:#407BFF"></path><path d="M185.26,104.88l-2.09,1.88-.65.58a.24.24,0,0,0-.08.21l0,1,.13,2.72a.25.25,0,0,1-.36.24l-.75-.41-1.09-.61-.81-.45.81.45,1.09.6.16.09a.25.25,0,0,0,.36-.25l-.08-1h0l-.21-2.5a.24.24,0,0,1,.09-.21l1.78-1.61,1-.85a.23.23,0,0,0-.1-.4l-.35,0-1.07-.16-2-.3a.21.21,0,0,1-.17-.13l-.42-1h0l-.19-.46-.26-.65h0l-.1-.25h0l-.17-.42-.14-.35a.25.25,0,0,0-.13-.12l.62.09.09,0,0,0,.1.09.31.76.06.14.12.29.8,2a.2.2,0,0,0,.16.12l1.32.2,1.07.15,1.06.16A.22.22,0,0,1,185.26,104.88Z" style="opacity:0.5"></path><path d="M180.27,100.68l-.12-.11A.19.19,0,0,1,180.27,100.68Z" style="fill:#263238"></path><path d="M180.06,100.55l.09,0Z" style="fill:#263238"></path><path d="M179.11,109.76l-1.73.87h0l-.81.41-.51.25h0a.36.36,0,0,1-.23,0h0l-.7-.11h0l.1,0,.4-.21.71-.35.37-.19.18-.09.79-.39.82-.41a.2.2,0,0,1,.21,0Z" style="fill:#407BFF"></path><path d="M179.11,109.76l-1.73.87h0l-.81.41-.51.25h0a.36.36,0,0,1-.23,0h0l-.7-.11h0l.1,0,.4-.21.71-.35.37-.19.18-.09.79-.39.82-.41a.2.2,0,0,1,.21,0Z" style="opacity:0.5"></path><path d="M180,101.6l-.32-.59-.29-.56h.07a.25.25,0,0,1,.13.12l.14.35Z" style="fill:#263238"></path><path d="M176.68,110.42l-1.08.54-.4.21-.1,0,.72-1.33.06,0Z" style="fill:#263238"></path><path d="M184.56,104.78l-1,.85h0l-1.78,1.61a.24.24,0,0,0-.09.21l.21,2.5h0l.08,1a.25.25,0,0,1-.36.25l-.16-.09-1.09-.6-.81-.45h0l-.48-.26-.43-.23a.2.2,0,0,0-.21,0l-.82.41-.79.39-.18.09-.37.19-.71.35-.4.21-.1,0a.21.21,0,0,1-.22-.27l.06-.21.84-3.26a.22.22,0,0,0,0-.21l-2.31-2.46a.25.25,0,0,1,.16-.4l3.53-.51a.26.26,0,0,0,.19-.13l1.84-3.16,0-.06a.23.23,0,0,1,.12-.06h.12a.25.25,0,0,1,.13.12l.14.35.17.42.1.25h0l.26.65.19.46h0l.42,1a.21.21,0,0,0,.17.13l2,.3,1.07.16.35,0A.23.23,0,0,1,184.56,104.78Z" style="fill:#407BFF"></path><path d="M179.88,101.35v0l-3.43,8.88-.13.34-.71.35-.4.21-.1,0a.21.21,0,0,1-.22-.27l.06-.21,4.26-10.19a.23.23,0,0,1,.12-.06h.12a.25.25,0,0,1,.13.12l.14.35Z" style="fill:#fff;opacity:0.4"></path><polygon points="180.43 102.71 180.43 102.71 177.65 109.94 176.86 110.33 180.24 102.25 180.43 102.71" style="fill:#fff;opacity:0.2"></polygon><path d="M184.11,104.32h0l-.51,1.3h0l-1.78,1.61a.24.24,0,0,0-.09.21l.21,2.5h0l-.44,1.13h0l-1.09-.61h0l2.63-6.31h0Z" style="fill:#fff;opacity:0.30000000000000004"></path><rect x="127.71" y="120.35" width="60.29" height="1" style="fill:#407BFF"></rect><rect x="115.93" y="125.97" width="72.06" height="1" style="fill:#407BFF"></rect><rect x="115.93" y="131.6" width="49.44" height="1" style="fill:#407BFF"></rect></g><g id="freepik--Icons--inject-1"><path d="M242.35,94.85l-2.94,1.2-.07,0-1.91-2.63c-5.89-8.4-12.64-17.72-4.46-21.91,5.68-2.92,10.13,2.23,12.24,5.37,3.46-1.56,11.14-6.54,14.28,2.62C262.11,87.16,251.78,90.8,242.35,94.85Z" style="fill:#407BFF"></path><path d="M232.72,74.14a.83.83,0,1,1-.09,0Z" style="fill:#fff;opacity:0.5"></path><path d="M233.46,83.75c-1.74-1.87,1.51-6.06-1-7.11C230.36,77,231.31,81.43,233.46,83.75Z" style="fill:#fff;opacity:0.5"></path><path d="M228.53,109.56l-1.6.65,0,0-1-1.43c-3.21-4.58-6.88-9.65-2.43-11.93,3.09-1.59,5.52,1.21,6.67,2.92,1.88-.85,6.06-3.56,7.77,1.43C239.29,105.37,233.66,107.35,228.53,109.56Z" style="fill:#407BFF"></path><path d="M223.28,98.29a.46.46,0,0,1,.44.6.44.44,0,1,1-.49-.6Z" style="fill:#fff;opacity:0.5"></path><path d="M223.68,103.52c-.94-1,.83-3.31-.53-3.88C222,99.81,222.52,102.25,223.68,103.52Z" style="fill:#fff;opacity:0.5"></path><g style="opacity:0.4"><path d="M242.35,94.85l-2.94,1.2-.07,0-1.91-2.63c-5.89-8.4-12.64-17.72-4.46-21.91,5.68-2.92,10.13,2.23,12.24,5.37,3.46-1.56,11.14-6.54,14.28,2.62C262.11,87.16,251.78,90.8,242.35,94.85Z" style="fill:#fff"></path><path d="M232.72,74.14a.83.83,0,1,1-.09,0Z" style="fill:#fff;opacity:0.5"></path><path d="M233.46,83.75c-1.74-1.87,1.51-6.06-1-7.11C230.36,77,231.31,81.43,233.46,83.75Z" style="fill:#fff;opacity:0.5"></path><path d="M228.53,109.56l-1.6.65,0,0-1-1.43c-3.21-4.58-6.88-9.65-2.43-11.93,3.09-1.59,5.52,1.21,6.67,2.92,1.88-.85,6.06-3.56,7.77,1.43C239.29,105.37,233.66,107.35,228.53,109.56Z" style="fill:#fff"></path><path d="M223.28,98.29a.46.46,0,0,1,.44.6.44.44,0,1,1-.49-.6Z" style="fill:#fff;opacity:0.5"></path><path d="M223.68,103.52c-.94-1,.83-3.31-.53-3.88C222,99.81,222.52,102.25,223.68,103.52Z" style="fill:#fff;opacity:0.5"></path></g><path d="M136.45,276.22l5.39,16.15a3.36,3.36,0,0,0,4,2.15l3.55-1a3,3,0,0,0,2-3.83l-5.38-16.15a3.37,3.37,0,0,0-4-2.15l-3.55,1A3,3,0,0,0,136.45,276.22Z" style="fill:#407BFF"></path><path d="M136.45,276.22l5.39,16.15a3.36,3.36,0,0,0,4,2.15l3.55-1a3,3,0,0,0,2-3.83l-5.38-16.15a3.37,3.37,0,0,0-4-2.15l-3.55,1A3,3,0,0,0,136.45,276.22Z" style="fill:#fff;opacity:0.5"></path><path d="M109,283.93l7.1,13.31a4.86,4.86,0,0,0,1.65,1.78l1.77,1.13a4.8,4.8,0,0,0,3.82.6l14.54-4A3.66,3.66,0,0,0,140.4,292l-5-15.09a5.36,5.36,0,0,0-1.93-2.62l-9-6.59-2.19-6.56-4.13,1.14a3.5,3.5,0,0,0-2.57,4l.7,4.44a3.81,3.81,0,0,0,.79,1.78l3.83,4.81-10.39,2.87Z" style="fill:#407BFF"></path><path d="M109,283.93l7.1,13.31a4.86,4.86,0,0,0,1.65,1.78l1.77,1.13a4.8,4.8,0,0,0,3.82.6l14.54-4A3.66,3.66,0,0,0,140.4,292l-5-15.09a5.36,5.36,0,0,0-1.93-2.62l-9-6.59-2.19-6.56-4.13,1.14a3.5,3.5,0,0,0-2.57,4l.7,4.44a3.81,3.81,0,0,0,.79,1.78l3.83,4.81-10.39,2.87Z" style="fill:#fff;opacity:0.5"></path><path d="M91.23,309l-3.9-11.69a2.43,2.43,0,0,0-2.92-1.56l-2.57.71a2.14,2.14,0,0,0-1.48,2.77l3.9,11.69a2.43,2.43,0,0,0,2.92,1.56l2.57-.71A2.14,2.14,0,0,0,91.23,309Z" style="fill:#407BFF"></path><path d="M91.23,309l-3.9-11.69a2.43,2.43,0,0,0-2.92-1.56l-2.57.71a2.14,2.14,0,0,0-1.48,2.77l3.9,11.69a2.43,2.43,0,0,0,2.92,1.56l2.57-.71A2.14,2.14,0,0,0,91.23,309Z" style="fill:#fff;opacity:0.5"></path><path d="M111.1,303.37,106,293.73a3.54,3.54,0,0,0-1.2-1.29l-1.28-.82a3.48,3.48,0,0,0-2.77-.43L90.19,294.1a2.64,2.64,0,0,0-1.82,3.42L92,308.45a3.82,3.82,0,0,0,1.39,1.9l6.54,4.77,1.58,4.75,3-.82a2.54,2.54,0,0,0,1.87-2.87l-.51-3.22a2.78,2.78,0,0,0-.57-1.29l-2.77-3.48,7.52-2.08Z" style="fill:#407BFF"></path><path d="M111.1,303.37,106,293.73a3.54,3.54,0,0,0-1.2-1.29l-1.28-.82a3.48,3.48,0,0,0-2.77-.43L90.19,294.1a2.64,2.64,0,0,0-1.82,3.42L92,308.45a3.82,3.82,0,0,0,1.39,1.9l6.54,4.77,1.58,4.75,3-.82a2.54,2.54,0,0,0,1.87-2.87l-.51-3.22a2.78,2.78,0,0,0-.57-1.29l-2.77-3.48,7.52-2.08Z" style="fill:#407BFF"></path><g style="opacity:0.5"><path d="M136.45,276.22l5.39,16.15a3.36,3.36,0,0,0,4,2.15l3.55-1a3,3,0,0,0,2-3.83l-5.38-16.15a3.37,3.37,0,0,0-4-2.15l-3.55,1A3,3,0,0,0,136.45,276.22Z" style="fill:#fff"></path><path d="M91.23,309l-3.9-11.69a2.43,2.43,0,0,0-2.92-1.56l-2.57.71a2.14,2.14,0,0,0-1.48,2.77l3.9,11.69a2.43,2.43,0,0,0,2.92,1.56l2.57-.71A2.14,2.14,0,0,0,91.23,309Z" style="fill:#fff"></path><path d="M111.1,303.37,106,293.73a3.54,3.54,0,0,0-1.2-1.29l-1.28-.82a3.48,3.48,0,0,0-2.77-.43L90.19,294.1a2.64,2.64,0,0,0-1.82,3.42L92,308.45a3.82,3.82,0,0,0,1.39,1.9l6.54,4.77,1.58,4.75,3-.82a2.54,2.54,0,0,0,1.87-2.87l-.51-3.22a2.78,2.78,0,0,0-.57-1.29l-2.77-3.48,7.52-2.08Z" style="fill:#fff"></path><path d="M111.1,303.37,106,293.73a3.54,3.54,0,0,0-1.2-1.29l-1.28-.82a3.48,3.48,0,0,0-2.77-.43L90.19,294.1a2.64,2.64,0,0,0-1.82,3.42L92,308.45a3.82,3.82,0,0,0,1.39,1.9l6.54,4.77,1.58,4.75,3-.82a2.54,2.54,0,0,0,1.87-2.87l-.51-3.22a2.78,2.78,0,0,0-.57-1.29l-2.77-3.48,7.52-2.08Z" style="fill:#fff"></path></g><polygon points="316.68 124.81 316.68 124.81 316.68 124.81 316.68 124.81" style="fill:#263238"></polygon><path d="M317.14,125.22l-.46-.41A.8.8,0,0,1,317.14,125.22Z" style="fill:#263238"></path><path d="M316.35,124.76a.91.91,0,0,1,.33,0Z" style="fill:#263238"></path><path d="M316.4,128.47l-1.31-2.11-1.21-2h0l.24,0a.82.82,0,0,1,.5.42l.61,1.24Z" style="fill:#263238"></path><path d="M307.48,159.59l-3.64,1.91-1.36.72a.79.79,0,0,1-.35.09l2.12-4.69.23.14Z" style="fill:#263238"></path><path d="M333.52,139.67l-3.11,3h0l-5.8,5.66a.8.8,0,0,0-.24.73l1.52,8.83h0l.58,3.44a.82.82,0,0,1-1.19.87l-.59-.31-4.05-2.13-3-1.57-.06,0-1.77-.93-1.57-.82a.81.81,0,0,0-.77,0l-2.75,1.44-2.65,1.4-.61.32-1.25.65-2.39,1.26-1.36.72a.79.79,0,0,1-.35.09.83.83,0,0,1-.85-1l.13-.74,2-11.53a.85.85,0,0,0-.24-.73l-8.91-8.68a.83.83,0,0,1,.46-1.41L307,136.47a.83.83,0,0,0,.62-.45l5.51-11.16a.73.73,0,0,1,.16-.22.81.81,0,0,1,.39-.22l.19,0h0l.16,0,.08,0a.82.82,0,0,1,.5.42l.61,1.24.73,1.47.44.9h0l1.12,2.26.81,1.65h0l1.8,3.64a.83.83,0,0,0,.62.45l7.25,1.05,3.79.55,1.27.19A.83.83,0,0,1,333.52,139.67Z" style="fill:#407BFF"></path><path d="M336,140l-6.81,6.63-2.1,2.05a.83.83,0,0,0-.24.73l.47,3.51,1.29,9.58a.82.82,0,0,1-1.19.87l-2.77-1.47-4.05-2.14-3-1.58,3,1.57,4.05,2.13.59.31a.82.82,0,0,0,1.19-.87l-.58-3.44h0l-1.52-8.83a.8.8,0,0,1,.24-.73l5.8-5.66,3.11-3a.83.83,0,0,0-.46-1.41l-1.27-.19-3.79-.55-7.25-1.05a.83.83,0,0,1-.62-.45l-1.8-3.64h0l-.81-1.65-1.12-2.26h0l-.44-.9h0l-.73-1.47-.61-1.24a.82.82,0,0,0-.5-.42l2.23.32.33,0,.08.07.38.34,1.32,2.67.25.5.5,1,3.44,7a.83.83,0,0,0,.62.45l4.73.69,3.79.55,3.79.55A.83.83,0,0,1,336,140Z" style="fill:#407BFF"></path><path d="M315.83,157.25,310,160.31h0l-2.76,1.45-1.71.9,0,0a1.22,1.22,0,0,1-.82,0l-.05,0-2.51-.39h0a.79.79,0,0,0,.35-.09l1.36-.72,2.39-1.26,1.25-.65.61-.32,2.65-1.4,2.75-1.44a.81.81,0,0,1,.77,0Z" style="fill:#407BFF"></path><path d="M336,140l-6.81,6.63-2.1,2.05a.83.83,0,0,0-.24.73l.47,3.51,1.29,9.58a.82.82,0,0,1-1.19.87l-2.77-1.47-4.05-2.14-3-1.58,3,1.57,4.05,2.13.59.31a.82.82,0,0,0,1.19-.87l-.58-3.44h0l-1.52-8.83a.8.8,0,0,1,.24-.73l5.8-5.66,3.11-3a.83.83,0,0,0-.46-1.41l-1.27-.19-3.79-.55-7.25-1.05a.83.83,0,0,1-.62-.45l-1.8-3.64h0l-.81-1.65-1.12-2.26h0l-.44-.9h0l-.73-1.47-.61-1.24a.82.82,0,0,0-.5-.42l2.23.32.33,0,.08.07.38.34,1.32,2.67.25.5.5,1,3.44,7a.83.83,0,0,0,.62.45l4.73.69,3.79.55,3.79.55A.83.83,0,0,1,336,140Z" style="fill:#fff;opacity:0.30000000000000004"></path><path d="M315.83,157.25,310,160.31h0l-2.76,1.45-1.71.9,0,0a1.22,1.22,0,0,1-.82,0l-.05,0-2.51-.39h0a.79.79,0,0,0,.35-.09l1.36-.72,2.39-1.26,1.25-.65.61-.32,2.65-1.4,2.75-1.44a.81.81,0,0,1,.77,0Z" style="fill:#fff;opacity:0.30000000000000004"></path><path d="M316,127.57l0,.13L306.59,159l-.36,1.2-2.39,1.26-1.36.72a.79.79,0,0,1-.35.09.83.83,0,0,1-.85-1l.13-.74,11.89-36a.81.81,0,0,1,.39-.22H314l.08,0a.82.82,0,0,1,.5.42l.61,1.24Z" style="fill:#fff;opacity:0.4"></path><polygon points="318.33 132.38 318.33 132.38 310.74 157.87 308.08 159.27 317.52 130.73 318.33 132.38" style="fill:#fff;opacity:0.2"></polygon><g style="opacity:0.5"><polygon points="316.68 124.66 316.68 124.66 316.68 124.66 316.68 124.66" style="fill:#fff"></polygon><path d="M317.14,125.07l-.46-.41A.77.77,0,0,1,317.14,125.07Z" style="fill:#fff"></path><path d="M316.35,124.61a.74.74,0,0,1,.33,0Z" style="fill:#fff"></path><path d="M316.4,128.32l-1.31-2.11-1.21-2h0l.24,0a.84.84,0,0,1,.5.43l.61,1.23Z" style="fill:#fff"></path></g><path d="M333.56,139.44l-3.11,3h0l-5.8,5.66a.8.8,0,0,0-.24.73l1.51,8.83h0l.59,3.43a.82.82,0,0,1-1.2.87l-.58-.3-4.05-2.14-3-1.56-.06,0-1.77-.93-1.57-.83a.81.81,0,0,0-.77,0l-2.75,1.45-2.66,1.4-.6.31-1.25.66-2.39,1.26-1.36.71a1,1,0,0,1-.35.1.83.83,0,0,1-.85-1l.13-.73,2-11.53a.85.85,0,0,0-.24-.73l-8.91-8.69a.82.82,0,0,1,.46-1.4l12.31-1.79a.82.82,0,0,0,.62-.46l5.51-11.15a.73.73,0,0,1,.16-.23.79.79,0,0,1,.39-.21.62.62,0,0,1,.19,0h.16l.08,0a.81.81,0,0,1,.5.43l.61,1.23.73,1.48.44.9h0l1.12,2.26.81,1.65h0l1.79,3.63a.83.83,0,0,0,.63.46L328,137.3l3.8.55,1.27.19A.82.82,0,0,1,333.56,139.44Z" style="fill:#fff;opacity:0.4"></path><polygon points="360.26 124.55 360.26 124.55 360.26 124.55 360.26 124.55" style="fill:#263238"></polygon><path d="M360.53,124.8l-.27-.25A.47.47,0,0,1,360.53,124.8Z" style="fill:#263238"></path><path d="M360.07,124.52a.63.63,0,0,1,.19,0Z" style="fill:#263238"></path><path d="M360.09,126.73l-.77-1.25-.72-1.17h0l.14,0a.52.52,0,0,1,.3.25l.36.74Z" style="fill:#263238"></path><path d="M354.8,145.22l-2.17,1.13-.81.43a.5.5,0,0,1-.21.05l1.27-2.79.13.09Z" style="fill:#263238"></path><path d="M370.26,133.38l-1.84,1.8h0L365,138.54a.49.49,0,0,0-.14.43l.9,5.25h0l.35,2a.49.49,0,0,1-.71.52l-.35-.19-2.41-1.26-1.77-.93,0,0-1.05-.55-.94-.49a.45.45,0,0,0-.45,0l-1.64.86-1.58.83-.35.19-.75.38-1.42.75-.81.43a.5.5,0,0,1-.21.05.49.49,0,0,1-.5-.57l.08-.44,1.17-6.85a.46.46,0,0,0-.14-.43l-5.29-5.16a.49.49,0,0,1,.27-.84l7.32-1.06a.49.49,0,0,0,.37-.27l3.27-6.63a.38.38,0,0,1,.09-.13.47.47,0,0,1,.24-.13h.25a.52.52,0,0,1,.3.25l.36.74.43.87.26.54h0l.67,1.34.48,1h0l1.07,2.16a.47.47,0,0,0,.37.27l4.3.63,2.26.32.75.11A.49.49,0,0,1,370.26,133.38Z" style="fill:#407BFF"></path><path d="M371.76,133.59l-4,3.94-1.25,1.22a.49.49,0,0,0-.14.44l.28,2.08.76,5.69a.49.49,0,0,1-.71.52l-1.64-.87-2.41-1.28-1.77-.93,1.77.93,2.41,1.26.35.19a.49.49,0,0,0,.71-.52l-.35-2h0l-.9-5.25a.49.49,0,0,1,.14-.43l3.45-3.36,1.84-1.8a.49.49,0,0,0-.27-.84l-.75-.11-2.26-.32-4.3-.63a.47.47,0,0,1-.37-.27l-1.07-2.16h0l-.48-1-.67-1.34h0l-.26-.54h0l-.43-.87-.36-.74a.52.52,0,0,0-.3-.25l1.33.19.19,0,.05,0,.22.21.79,1.58.14.3.3.61,2.05,4.14a.48.48,0,0,0,.37.26l2.81.41,2.25.33,2.25.33A.49.49,0,0,1,371.76,133.59Z" style="fill:#407BFF"></path><path d="M359.76,143.83l-3.46,1.81h0l-1.63.86-1,.54h0a.72.72,0,0,1-.48,0h0l-1.5-.23h0a.5.5,0,0,0,.21-.05l.81-.43,1.42-.75.75-.38.35-.19,1.58-.83,1.64-.86a.45.45,0,0,1,.45,0Z" style="fill:#407BFF"></path><path d="M371.76,133.59l-4,3.94-1.25,1.22a.49.49,0,0,0-.14.44l.28,2.08.76,5.69a.49.49,0,0,1-.71.52l-1.64-.87-2.41-1.28-1.77-.93,1.77.93,2.41,1.26.35.19a.49.49,0,0,0,.71-.52l-.35-2h0l-.9-5.25a.49.49,0,0,1,.14-.43l3.45-3.36,1.84-1.8a.49.49,0,0,0-.27-.84l-.75-.11-2.26-.32-4.3-.63a.47.47,0,0,1-.37-.27l-1.07-2.16h0l-.48-1-.67-1.34h0l-.26-.54h0l-.43-.87-.36-.74a.52.52,0,0,0-.3-.25l1.33.19.19,0,.05,0,.22.21.79,1.58.14.3.3.61,2.05,4.14a.48.48,0,0,0,.37.26l2.81.41,2.25.33,2.25.33A.49.49,0,0,1,371.76,133.59Z" style="fill:#fff;opacity:0.30000000000000004"></path><path d="M359.76,143.83l-3.46,1.81h0l-1.63.86-1,.54h0a.72.72,0,0,1-.48,0h0l-1.5-.23h0a.5.5,0,0,0,.21-.05l.81-.43,1.42-.75.75-.38.35-.19,1.58-.83,1.64-.86a.45.45,0,0,1,.45,0Z" style="fill:#fff;opacity:0.30000000000000004"></path><path d="M359.83,126.19l0,.08-5.54,18.62-.22.71-1.42.75-.81.43a.5.5,0,0,1-.21.05.49.49,0,0,1-.5-.57l.08-.44,7.06-21.37a.47.47,0,0,1,.24-.13h.25a.52.52,0,0,1,.3.25l.36.74Z" style="fill:#fff;opacity:0.4"></path><polygon points="361.24 129.05 361.24 129.05 356.73 144.2 355.15 145.03 360.76 128.07 361.24 129.05" style="fill:#fff;opacity:0.2"></polygon><g style="opacity:0.5"><polygon points="360.26 124.46 360.26 124.46 360.26 124.46 360.26 124.46" style="fill:#fff"></polygon><path d="M360.53,124.71l-.27-.25A.47.47,0,0,1,360.53,124.71Z" style="fill:#fff"></path><path d="M360.07,124.43a.63.63,0,0,1,.19,0Z" style="fill:#fff"></path><path d="M360.09,126.64l-.77-1.25-.72-1.17h0l.14,0a.52.52,0,0,1,.3.25l.36.74Z" style="fill:#fff"></path></g><path d="M370.29,133.25,368.44,135h0L365,138.41a.52.52,0,0,0-.14.43l.9,5.25h0l.35,2a.49.49,0,0,1-.71.51l-.34-.18-2.41-1.26-1.77-.94h0l-1.05-.56-.93-.49a.53.53,0,0,0-.46,0l-1.63.86-1.58.83-.36.19-.74.39-1.42.75-.81.42a.42.42,0,0,1-.21.06.48.48,0,0,1-.5-.57l.07-.44,1.18-6.85a.52.52,0,0,0-.14-.43l-5.3-5.16a.49.49,0,0,1,.27-.84l7.32-1.06a.52.52,0,0,0,.37-.27l3.27-6.63a.73.73,0,0,1,.09-.13.47.47,0,0,1,.24-.13h.25a.49.49,0,0,1,.3.25l.36.73.43.88.27.53h0l.66,1.35.48,1h0l1.07,2.16a.52.52,0,0,0,.37.27L367,132l2.25.33.76.11A.49.49,0,0,1,370.29,133.25Z" style="fill:#fff;opacity:0.4"></path><polygon points="351.88 155.96 351.88 155.96 351.88 155.96 351.88 155.96" style="fill:#263238"></polygon><path d="M352.14,156.19l-.26-.23A.39.39,0,0,1,352.14,156.19Z" style="fill:#263238"></path><path d="M351.69,155.93a.32.32,0,0,1,.19,0Z" style="fill:#263238"></path><path d="M351.72,158.07l-.76-1.22-.7-1.13h0l.14,0a.47.47,0,0,1,.29.25l.35.71Z" style="fill:#263238"></path><path d="M346.56,176.06l-2.1,1.1-.79.41a.39.39,0,0,1-.2.06l1.23-2.71.13.08Z" style="fill:#263238"></path><path d="M361.61,164.54l-1.79,1.75h0l-3.36,3.27a.51.51,0,0,0-.14.42l.88,5.11h0l.34,2a.47.47,0,0,1-.69.5l-.34-.17-2.34-1.23-1.73-.91,0,0-1-.53-.91-.48a.49.49,0,0,0-.44,0l-1.59.83-1.54.81-.35.19-.72.37-1.38.73-.79.41a.39.39,0,0,1-.2.06.48.48,0,0,1-.49-.56l.07-.42L344.2,170a.51.51,0,0,0-.14-.42l-5.15-5a.48.48,0,0,1,.26-.81l7.12-1a.45.45,0,0,0,.36-.26l3.18-6.44a.73.73,0,0,1,.09-.13.49.49,0,0,1,.23-.13h.25a.47.47,0,0,1,.29.25l.35.71.42.85.26.52h0l.64,1.31.47,1h0l1,2.1a.45.45,0,0,0,.36.26l4.19.61,2.19.32.74.11A.48.48,0,0,1,361.61,164.54Z" style="fill:#407BFF"></path><path d="M363.07,164.75l-3.94,3.83-1.21,1.19a.45.45,0,0,0-.14.42l.27,2,.75,5.54a.47.47,0,0,1-.69.5l-1.6-.85-2.34-1.24-1.73-.91,1.73.91,2.34,1.23.34.17a.47.47,0,0,0,.69-.5l-.34-2h0l-.88-5.11a.51.51,0,0,1,.14-.42l3.36-3.27,1.79-1.75a.48.48,0,0,0-.26-.81l-.74-.11-2.19-.32-4.19-.61a.45.45,0,0,1-.36-.26l-1-2.1h0l-.47-1-.64-1.31h0l-.26-.52h0l-.42-.85-.35-.71a.47.47,0,0,0-.29-.25l1.29.19.19,0,0,0,.22.19.77,1.55.14.29.29.59,2,4a.47.47,0,0,0,.36.26l2.73.4,2.19.32,2.19.32A.48.48,0,0,1,363.07,164.75Z" style="fill:#407BFF"></path><path d="M351.39,174.71,348,176.47h0l-1.59.84-1,.52h0a.69.69,0,0,1-.47,0h0l-1.45-.22h0a.39.39,0,0,0,.2-.06l.79-.41,1.38-.73.72-.37.35-.19,1.54-.81,1.59-.83a.49.49,0,0,1,.44,0Z" style="fill:#407BFF"></path><path d="M363.07,164.75l-3.94,3.83-1.21,1.19a.45.45,0,0,0-.14.42l.27,2,.75,5.54a.47.47,0,0,1-.69.5l-1.6-.85-2.34-1.24-1.73-.91,1.73.91,2.34,1.23.34.17a.47.47,0,0,0,.69-.5l-.34-2h0l-.88-5.11a.51.51,0,0,1,.14-.42l3.36-3.27,1.79-1.75a.48.48,0,0,0-.26-.81l-.74-.11-2.19-.32-4.19-.61a.45.45,0,0,1-.36-.26l-1-2.1h0l-.47-1-.64-1.31h0l-.26-.52h0l-.42-.85-.35-.71a.47.47,0,0,0-.29-.25l1.29.19.19,0,0,0,.22.19.77,1.55.14.29.29.59,2,4a.47.47,0,0,0,.36.26l2.73.4,2.19.32,2.19.32A.48.48,0,0,1,363.07,164.75Z" style="fill:#fff;opacity:0.30000000000000004"></path><path d="M351.39,174.71,348,176.47h0l-1.59.84-1,.52h0a.69.69,0,0,1-.47,0h0l-1.45-.22h0a.39.39,0,0,0,.2-.06l.79-.41,1.38-.73.72-.37.35-.19,1.54-.81,1.59-.83a.49.49,0,0,1,.44,0Z" style="fill:#fff;opacity:0.30000000000000004"></path><path d="M351.46,157.55l0,.08-5.39,18.11-.21.69-1.38.73-.79.41a.39.39,0,0,1-.2.06.48.48,0,0,1-.49-.56l.07-.42,6.87-20.79a.49.49,0,0,1,.23-.13h.25a.47.47,0,0,1,.29.25l.35.71Z" style="fill:#fff;opacity:0.4"></path><polygon points="352.83 160.33 352.83 160.33 348.45 175.06 346.91 175.87 352.36 159.38 352.83 160.33" style="fill:#fff;opacity:0.2"></polygon><g style="opacity:0.5"><polygon points="351.88 155.87 351.88 155.87 351.88 155.87 351.88 155.87" style="fill:#fff"></polygon><path d="M352.14,156.11l-.26-.24A.44.44,0,0,1,352.14,156.11Z" style="fill:#fff"></path><path d="M351.69,155.84a.63.63,0,0,1,.19,0Z" style="fill:#fff"></path><path d="M351.72,158l-.76-1.21-.7-1.14h0l.14,0a.5.5,0,0,1,.29.25l.35.71Z" style="fill:#fff"></path></g><path d="M361.63,164.41l-1.79,1.75h0l-3.36,3.27a.47.47,0,0,0-.13.42l.87,5.11h0l.34,2a.47.47,0,0,1-.69.5l-.34-.17L354.19,176l-1.72-.91,0,0-1-.53-.91-.48a.49.49,0,0,0-.44,0l-1.59.83-1.54.81-.34.19-.73.37-1.38.73-.79.41a.36.36,0,0,1-.2.06.48.48,0,0,1-.49-.56l.08-.42,1.14-6.67a.51.51,0,0,0-.14-.42l-5.15-5a.47.47,0,0,1,.27-.81l7.11-1a.48.48,0,0,0,.36-.27l3.18-6.44a.45.45,0,0,1,.1-.13.41.41,0,0,1,.23-.13h.24a.45.45,0,0,1,.29.25l.35.71.42.85.26.52h0l.64,1.31.47.95h0l1,2.1a.5.5,0,0,0,.36.27l4.19.6,2.19.32.74.11A.48.48,0,0,1,361.63,164.41Z" style="fill:#fff;opacity:0.4"></path></g></svg>